<svg width="108" height="18" viewBox="0 0 108 18" fill="none" xmlns="http://www.w3.org/2000/svg">
<path d="M0.292893 8.29289C-0.0976311 8.68342 -0.0976311 9.31658 0.292893 9.70711L6.65685 16.0711C7.04738 16.4616 7.68054 16.4616 8.07107 16.0711C8.46159 15.6805 8.46159 15.0474 8.07107 14.6569L2.41421 9L8.07107 3.34315C8.46159 2.95262 8.46159 2.31946 8.07107 1.92893C7.68054 1.53841 7.04738 1.53841 6.65685 1.92893L0.292893 8.29289ZM26 10C26.5523 10 27 9.55228 27 9C27 8.44772 26.5523 8 26 8V10ZM1 10H26V8H1V10Z" fill="white"/>
<path d="M36.028 10.544V14H35.02V5.6H38.02C38.452 5.6 38.828 5.664 39.148 5.792C39.468 5.912 39.732 6.076 39.94 6.284C40.156 6.492 40.316 6.736 40.42 7.016C40.532 7.288 40.588 7.576 40.588 7.88V8.24C40.588 8.544 40.532 8.836 40.42 9.116C40.316 9.396 40.156 9.644 39.94 9.86C39.724 10.068 39.456 10.236 39.136 10.364C38.816 10.484 38.444 10.544 38.02 10.544H36.028ZM36.028 9.608H37.9C39.02 9.608 39.58 9.128 39.58 8.168V7.952C39.58 7.528 39.44 7.188 39.16 6.932C38.888 6.668 38.468 6.536 37.9 6.536H36.028V9.608ZM42.0557 8.048H44.2157V8.84H44.3597C44.5117 8.512 44.7277 8.272 45.0077 8.12C45.2877 7.96 45.6077 7.88 45.9677 7.88C46.5677 7.88 47.0517 8.076 47.4197 8.468C47.7877 8.86 47.9837 9.432 48.0077 10.184L47.0237 10.328C47.0237 9.776 46.8917 9.38 46.6277 9.14C46.3637 8.892 46.0397 8.768 45.6557 8.768C45.4077 8.768 45.1917 8.816 45.0077 8.912C44.8317 9.008 44.6837 9.14 44.5637 9.308C44.4437 9.476 44.3557 9.672 44.2997 9.896C44.2437 10.12 44.2157 10.36 44.2157 10.616V13.136H45.7277V14H41.9117V13.136H43.2797V8.912H42.0557V8.048ZM50.4233 11.312C50.4473 11.904 50.6313 12.38 50.9753 12.74C51.3193 13.1 51.7993 13.28 52.4153 13.28C52.6953 13.28 52.9393 13.248 53.1473 13.184C53.3553 13.12 53.5313 13.032 53.6753 12.92C53.8273 12.808 53.9473 12.68 54.0353 12.536C54.1313 12.384 54.2073 12.224 54.2633 12.056L55.1513 12.296C54.9833 12.848 54.6713 13.3 54.2153 13.652C53.7673 13.996 53.1593 14.168 52.3913 14.168C51.9673 14.168 51.5753 14.096 51.2153 13.952C50.8633 13.8 50.5593 13.588 50.3033 13.316C50.0473 13.044 49.8473 12.72 49.7033 12.344C49.5593 11.968 49.4873 11.552 49.4873 11.096V10.808C49.4873 10.392 49.5593 10.004 49.7033 9.644C49.8553 9.284 50.0633 8.976 50.3273 8.72C50.5913 8.456 50.8993 8.252 51.2513 8.108C51.6113 7.956 51.9993 7.88 52.4153 7.88C52.9033 7.88 53.3233 7.972 53.6753 8.156C54.0353 8.332 54.3273 8.552 54.5513 8.816C54.7833 9.08 54.9513 9.368 55.0553 9.68C55.1673 9.992 55.2233 10.28 55.2233 10.544V11.312H50.4233ZM52.4153 8.768C52.1513 8.768 51.9033 8.812 51.6713 8.9C51.4473 8.98 51.2473 9.096 51.0713 9.248C50.9033 9.4 50.7633 9.58 50.6513 9.788C50.5473 9.988 50.4793 10.208 50.4473 10.448H54.2873C54.2713 10.192 54.2073 9.96 54.0953 9.752C53.9913 9.544 53.8513 9.368 53.6753 9.224C53.5073 9.08 53.3113 8.968 53.0873 8.888C52.8713 8.808 52.6473 8.768 52.4153 8.768ZM53.8433 5.744L52.8353 7.16H51.9713L52.7633 5.744H53.8433ZM62.655 11.888C62.591 12.216 62.479 12.52 62.319 12.8C62.167 13.08 61.971 13.324 61.731 13.532C61.491 13.732 61.211 13.888 60.891 14C60.571 14.112 60.215 14.168 59.823 14.168C59.407 14.168 59.011 14.1 58.635 13.964C58.267 13.828 57.943 13.632 57.663 13.376C57.383 13.112 57.159 12.792 56.991 12.416C56.831 12.04 56.751 11.608 56.751 11.12V10.976C56.751 10.496 56.831 10.064 56.991 9.68C57.159 9.296 57.383 8.972 57.663 8.708C57.943 8.444 58.267 8.24 58.635 8.096C59.011 7.952 59.407 7.88 59.823 7.88C60.199 7.88 60.547 7.936 60.867 8.048C61.187 8.16 61.467 8.32 61.707 8.528C61.955 8.728 62.155 8.968 62.307 9.248C62.467 9.528 62.575 9.832 62.631 10.16L61.695 10.376C61.671 10.168 61.611 9.968 61.515 9.776C61.427 9.576 61.303 9.404 61.143 9.26C60.991 9.108 60.803 8.988 60.579 8.9C60.355 8.812 60.095 8.768 59.799 8.768C59.511 8.768 59.239 8.824 58.983 8.936C58.735 9.04 58.515 9.192 58.323 9.392C58.131 9.584 57.979 9.816 57.867 10.088C57.763 10.36 57.711 10.656 57.711 10.976V11.12C57.711 11.456 57.763 11.76 57.867 12.032C57.979 12.296 58.131 12.52 58.323 12.704C58.515 12.888 58.739 13.032 58.995 13.136C59.251 13.232 59.527 13.28 59.823 13.28C60.119 13.28 60.375 13.236 60.591 13.148C60.815 13.052 61.003 12.932 61.155 12.788C61.315 12.636 61.439 12.464 61.527 12.272C61.623 12.08 61.687 11.88 61.719 11.672L62.655 11.888ZM65.1186 11.312C65.1426 11.904 65.3266 12.38 65.6706 12.74C66.0146 13.1 66.4946 13.28 67.1106 13.28C67.3906 13.28 67.6346 13.248 67.8426 13.184C68.0506 13.12 68.2266 13.032 68.3706 12.92C68.5226 12.808 68.6426 12.68 68.7306 12.536C68.8266 12.384 68.9026 12.224 68.9586 12.056L69.8466 12.296C69.6786 12.848 69.3666 13.3 68.9106 13.652C68.4626 13.996 67.8546 14.168 67.0866 14.168C66.6626 14.168 66.2706 14.096 65.9106 13.952C65.5586 13.8 65.2546 13.588 64.9986 13.316C64.7426 13.044 64.5426 12.72 64.3986 12.344C64.2546 11.968 64.1826 11.552 64.1826 11.096V10.808C64.1826 10.392 64.2546 10.004 64.3986 9.644C64.5506 9.284 64.7586 8.976 65.0226 8.72C65.2866 8.456 65.5946 8.252 65.9466 8.108C66.3066 7.956 66.6946 7.88 67.1106 7.88C67.5986 7.88 68.0186 7.972 68.3706 8.156C68.7306 8.332 69.0226 8.552 69.2466 8.816C69.4786 9.08 69.6466 9.368 69.7506 9.68C69.8626 9.992 69.9186 10.28 69.9186 10.544V11.312H65.1186ZM67.1106 8.768C66.8466 8.768 66.5986 8.812 66.3666 8.9C66.1426 8.98 65.9426 9.096 65.7666 9.248C65.5986 9.4 65.4586 9.58 65.3466 9.788C65.2426 9.988 65.1746 10.208 65.1426 10.448H68.9826C68.9666 10.192 68.9026 9.96 68.7906 9.752C68.6866 9.544 68.5466 9.368 68.3706 9.224C68.2026 9.08 68.0066 8.968 67.7826 8.888C67.5666 8.808 67.3426 8.768 67.1106 8.768ZM68.5386 5.744L67.5306 7.16H66.6666L67.4586 5.744H68.5386ZM76.3903 13.088H76.2463C76.1503 13.272 76.0263 13.432 75.8743 13.568C75.7303 13.704 75.5703 13.816 75.3943 13.904C75.2263 13.992 75.0463 14.056 74.8543 14.096C74.6623 14.144 74.4783 14.168 74.3023 14.168C73.9023 14.168 73.5303 14.1 73.1863 13.964C72.8423 13.828 72.5383 13.632 72.2743 13.376C72.0183 13.12 71.8143 12.804 71.6623 12.428C71.5183 12.044 71.4463 11.608 71.4463 11.12V10.928C71.4463 10.448 71.5223 10.02 71.6743 9.644C71.8263 9.26 72.0303 8.94 72.2863 8.684C72.5423 8.42 72.8423 8.22 73.1863 8.084C73.5303 7.948 73.8943 7.88 74.2783 7.88C74.6863 7.88 75.0663 7.972 75.4183 8.156C75.7783 8.332 76.0543 8.608 76.2463 8.984H76.3903V5.6H77.3263V14H76.3903V13.088ZM74.3983 13.28C74.6783 13.28 74.9383 13.228 75.1783 13.124C75.4183 13.02 75.6263 12.872 75.8023 12.68C75.9863 12.488 76.1303 12.26 76.2343 11.996C76.3383 11.724 76.3903 11.424 76.3903 11.096V10.952C76.3903 10.632 76.3383 10.34 76.2343 10.076C76.1303 9.804 75.9863 9.572 75.8023 9.38C75.6263 9.188 75.4143 9.04 75.1663 8.936C74.9263 8.824 74.6703 8.768 74.3983 8.768C74.1183 8.768 73.8543 8.82 73.6063 8.924C73.3663 9.028 73.1543 9.176 72.9703 9.368C72.7943 9.56 72.6543 9.788 72.5503 10.052C72.4543 10.316 72.4063 10.608 72.4063 10.928V11.12C72.4063 11.456 72.4543 11.756 72.5503 12.02C72.6543 12.284 72.7943 12.512 72.9703 12.704C73.1543 12.888 73.3663 13.032 73.6063 13.136C73.8463 13.232 74.1103 13.28 74.3983 13.28ZM79.8139 11.312C79.8379 11.904 80.0219 12.38 80.3659 12.74C80.7099 13.1 81.1899 13.28 81.8059 13.28C82.0859 13.28 82.3299 13.248 82.5379 13.184C82.7459 13.12 82.9219 13.032 83.0659 12.92C83.2179 12.808 83.3379 12.68 83.4259 12.536C83.5219 12.384 83.5979 12.224 83.6539 12.056L84.5419 12.296C84.3739 12.848 84.0619 13.3 83.6059 13.652C83.1579 13.996 82.5499 14.168 81.7819 14.168C81.3579 14.168 80.9659 14.096 80.6059 13.952C80.2539 13.8 79.9499 13.588 79.6939 13.316C79.4379 13.044 79.2379 12.72 79.0939 12.344C78.9499 11.968 78.8779 11.552 78.8779 11.096V10.808C78.8779 10.392 78.9499 10.004 79.0939 9.644C79.2459 9.284 79.4539 8.976 79.7179 8.72C79.9819 8.456 80.2899 8.252 80.6419 8.108C81.0019 7.956 81.3899 7.88 81.8059 7.88C82.2939 7.88 82.7139 7.972 83.0659 8.156C83.4259 8.332 83.7179 8.552 83.9419 8.816C84.1739 9.08 84.3419 9.368 84.4459 9.68C84.5579 9.992 84.6139 10.28 84.6139 10.544V11.312H79.8139ZM81.8059 8.768C81.5419 8.768 81.2939 8.812 81.0619 8.9C80.8379 8.98 80.6379 9.096 80.4619 9.248C80.2939 9.4 80.1539 9.58 80.0419 9.788C79.9379 9.988 79.8699 10.208 79.8379 10.448H83.6779C83.6619 10.192 83.5979 9.96 83.4859 9.752C83.3819 9.544 83.2419 9.368 83.0659 9.224C82.8979 9.08 82.7019 8.968 82.4779 8.888C82.2619 8.808 82.0379 8.768 81.8059 8.768ZM87.4136 14H86.4776V8.048H87.4136V9.056H87.5576C87.9256 8.272 88.5656 7.88 89.4776 7.88C90.1656 7.88 90.7136 8.096 91.1216 8.528C91.5296 8.952 91.7336 9.592 91.7336 10.448V14H90.7976V10.64C90.7976 10.016 90.6576 9.548 90.3776 9.236C90.0976 8.924 89.7176 8.768 89.2376 8.768C88.6696 8.768 88.2216 8.964 87.8936 9.356C87.5736 9.74 87.4136 10.256 87.4136 10.904V14ZM93.6213 8.048H95.4933V5.6H96.4293V8.048H98.7333V8.912H96.4293V12.776C96.4293 13.016 96.5373 13.136 96.7533 13.136H98.4453V14H96.4173C96.1453 14 95.9213 13.912 95.7453 13.736C95.5773 13.56 95.4933 13.336 95.4933 13.064V8.912H93.6213V8.048ZM101.857 11.312C101.881 11.904 102.065 12.38 102.409 12.74C102.753 13.1 103.233 13.28 103.849 13.28C104.129 13.28 104.373 13.248 104.581 13.184C104.789 13.12 104.965 13.032 105.109 12.92C105.261 12.808 105.381 12.68 105.469 12.536C105.565 12.384 105.641 12.224 105.697 12.056L106.585 12.296C106.417 12.848 106.105 13.3 105.649 13.652C105.201 13.996 104.593 14.168 103.825 14.168C103.401 14.168 103.009 14.096 102.649 13.952C102.297 13.8 101.993 13.588 101.737 13.316C101.481 13.044 101.281 12.72 101.137 12.344C100.993 11.968 100.921 11.552 100.921 11.096V10.808C100.921 10.392 100.993 10.004 101.137 9.644C101.289 9.284 101.497 8.976 101.761 8.72C102.025 8.456 102.333 8.252 102.685 8.108C103.045 7.956 103.433 7.88 103.849 7.88C104.337 7.88 104.757 7.972 105.109 8.156C105.469 8.332 105.761 8.552 105.985 8.816C106.217 9.08 106.385 9.368 106.489 9.68C106.601 9.992 106.657 10.28 106.657 10.544V11.312H101.857ZM103.849 8.768C103.585 8.768 103.337 8.812 103.105 8.9C102.881 8.98 102.681 9.096 102.505 9.248C102.337 9.4 102.197 9.58 102.085 9.788C101.981 9.988 101.913 10.208 101.881 10.448H105.721C105.705 10.192 105.641 9.96 105.529 9.752C105.425 9.544 105.285 9.368 105.109 9.224C104.941 9.08 104.745 8.968 104.521 8.888C104.305 8.808 104.081 8.768 103.849 8.768Z" fill="white"/>
</svg>
