<svg width="93" height="18" viewBox="0 0 93 18" fill="none" xmlns="http://www.w3.org/2000/svg">
<path d="M5.652 8.024C5.652 7.752 5.596 7.512 5.484 7.304C5.38 7.096 5.236 6.924 5.052 6.788C4.868 6.652 4.656 6.548 4.416 6.476C4.176 6.404 3.924 6.368 3.66 6.368C3.428 6.368 3.208 6.4 3 6.464C2.792 6.52 2.604 6.604 2.436 6.716C2.276 6.828 2.148 6.968 2.052 7.136C1.956 7.296 1.908 7.484 1.908 7.7V7.772C1.908 8.004 1.956 8.204 2.052 8.372C2.148 8.532 2.288 8.672 2.472 8.792C2.664 8.904 2.9 9 3.18 9.08C3.46 9.152 3.788 9.216 4.164 9.272C5.044 9.408 5.692 9.668 6.108 10.052C6.524 10.428 6.732 10.936 6.732 11.576V11.72C6.732 12.08 6.668 12.412 6.54 12.716C6.42 13.012 6.236 13.268 5.988 13.484C5.748 13.7 5.448 13.868 5.088 13.988C4.728 14.108 4.312 14.168 3.84 14.168C3.304 14.168 2.828 14.092 2.412 13.94C2.004 13.78 1.66 13.564 1.38 13.292C1.108 13.012 0.9 12.688 0.756 12.32C0.612 11.944 0.54 11.536 0.54 11.096V10.736H1.548V11.024C1.548 11.76 1.748 12.312 2.148 12.68C2.556 13.048 3.12 13.232 3.84 13.232C4.464 13.232 4.932 13.096 5.244 12.824C5.564 12.544 5.724 12.176 5.724 11.72V11.648C5.724 11.208 5.56 10.872 5.232 10.64C4.912 10.408 4.388 10.24 3.66 10.136C3.236 10.08 2.852 9.996 2.508 9.884C2.172 9.764 1.884 9.612 1.644 9.428C1.404 9.236 1.22 9.008 1.092 8.744C0.964 8.48 0.9 8.168 0.9 7.808V7.664C0.9 7.336 0.968 7.036 1.104 6.764C1.24 6.492 1.428 6.256 1.668 6.056C1.916 5.856 2.208 5.704 2.544 5.6C2.888 5.488 3.264 5.432 3.672 5.432C4.144 5.432 4.564 5.5 4.932 5.636C5.308 5.772 5.624 5.956 5.88 6.188C6.136 6.412 6.328 6.68 6.456 6.992C6.592 7.296 6.66 7.616 6.66 7.952V8.456H5.652V8.024ZM12.6397 8.048H13.5757V14H12.6397V12.92H12.4957C12.3037 13.304 12.0517 13.608 11.7397 13.832C11.4277 14.056 11.0317 14.168 10.5517 14.168C10.2237 14.168 9.91966 14.112 9.63966 14C9.36766 13.896 9.13166 13.736 8.93166 13.52C8.73966 13.304 8.58766 13.036 8.47566 12.716C8.37166 12.396 8.31966 12.024 8.31966 11.6V8.048H9.25566V11.48C9.25566 12.104 9.38366 12.56 9.63966 12.848C9.89566 13.136 10.2877 13.28 10.8157 13.28C11.3837 13.28 11.8277 13.088 12.1477 12.704C12.4757 12.312 12.6397 11.792 12.6397 11.144V8.048ZM17.5873 6.272C17.5873 6.04 17.6673 5.844 17.8273 5.684C17.9953 5.516 18.1953 5.432 18.4273 5.432C18.6593 5.432 18.8553 5.516 19.0153 5.684C19.1833 5.844 19.2673 6.04 19.2673 6.272C19.2673 6.504 19.1833 6.704 19.0153 6.872C18.8553 7.032 18.6593 7.112 18.4273 7.112C18.1953 7.112 17.9953 7.032 17.8273 6.872C17.6673 6.704 17.5873 6.504 17.5873 6.272ZM15.8833 13.136H17.9713V8.912H16.0993V8.048H18.9073V13.136H20.8513V14H15.8833V13.136ZM26.627 14H24.779L22.703 8.048H23.807L25.631 13.568H25.775L27.599 8.048H28.703L26.627 14ZM34.7546 12.992H34.6106C34.4186 13.392 34.1506 13.688 33.8066 13.88C33.4706 14.072 33.1146 14.168 32.7386 14.168C32.3466 14.168 31.9826 14.104 31.6466 13.976C31.3106 13.84 31.0146 13.644 30.7586 13.388C30.5106 13.124 30.3146 12.804 30.1706 12.428C30.0266 12.052 29.9546 11.616 29.9546 11.12V10.928C29.9546 10.44 30.0266 10.008 30.1706 9.632C30.3146 9.256 30.5106 8.94 30.7586 8.684C31.0146 8.42 31.3106 8.22 31.6466 8.084C31.9826 7.948 32.3386 7.88 32.7146 7.88C33.1226 7.88 33.4906 7.972 33.8186 8.156C34.1546 8.332 34.4186 8.608 34.6106 8.984H34.7546V8.048H35.6906V12.776C35.6906 13.016 35.7986 13.136 36.0146 13.136H36.3146V14H35.6786C35.4066 14 35.1826 13.912 35.0066 13.736C34.8386 13.56 34.7546 13.336 34.7546 13.064V12.992ZM32.8346 13.28C33.1146 13.28 33.3706 13.228 33.6026 13.124C33.8426 13.02 34.0466 12.872 34.2146 12.68C34.3826 12.488 34.5146 12.26 34.6106 11.996C34.7066 11.724 34.7546 11.424 34.7546 11.096V10.952C34.7546 10.632 34.7066 10.34 34.6106 10.076C34.5146 9.804 34.3786 9.572 34.2026 9.38C34.0346 9.188 33.8306 9.04 33.5906 8.936C33.3586 8.824 33.1066 8.768 32.8346 8.768C32.5546 8.768 32.2986 8.82 32.0666 8.924C31.8346 9.028 31.6306 9.176 31.4546 9.368C31.2866 9.552 31.1546 9.78 31.0586 10.052C30.9626 10.316 30.9146 10.608 30.9146 10.928V11.12C30.9146 11.8 31.0906 12.332 31.4426 12.716C31.8026 13.092 32.2666 13.28 32.8346 13.28ZM38.7183 14H37.7823V8.048H38.7183V9.056H38.8623C39.2303 8.272 39.8703 7.88 40.7823 7.88C41.4703 7.88 42.0183 8.096 42.4263 8.528C42.8343 8.952 43.0383 9.592 43.0383 10.448V14H42.1023V10.64C42.1023 10.016 41.9623 9.548 41.6823 9.236C41.4023 8.924 41.0223 8.768 40.5423 8.768C39.9743 8.768 39.5263 8.964 39.1983 9.356C38.8783 9.74 38.7183 10.256 38.7183 10.904V14ZM44.9259 8.048H46.7979V5.6H47.7339V8.048H50.0379V8.912H47.7339V12.776C47.7339 13.016 47.8419 13.136 48.0579 13.136H49.7499V14H47.7219C47.4499 14 47.2259 13.912 47.0499 13.736C46.8819 13.56 46.7979 13.336 46.7979 13.064V8.912H44.9259V8.048ZM53.1616 11.312C53.1856 11.904 53.3696 12.38 53.7136 12.74C54.0576 13.1 54.5376 13.28 55.1536 13.28C55.4336 13.28 55.6776 13.248 55.8856 13.184C56.0936 13.12 56.2696 13.032 56.4136 12.92C56.5656 12.808 56.6856 12.68 56.7736 12.536C56.8696 12.384 56.9456 12.224 57.0016 12.056L57.8896 12.296C57.7216 12.848 57.4096 13.3 56.9536 13.652C56.5056 13.996 55.8976 14.168 55.1296 14.168C54.7056 14.168 54.3136 14.096 53.9536 13.952C53.6016 13.8 53.2976 13.588 53.0416 13.316C52.7856 13.044 52.5856 12.72 52.4416 12.344C52.2976 11.968 52.2256 11.552 52.2256 11.096V10.808C52.2256 10.392 52.2976 10.004 52.4416 9.644C52.5936 9.284 52.8016 8.976 53.0656 8.72C53.3296 8.456 53.6376 8.252 53.9896 8.108C54.3496 7.956 54.7376 7.88 55.1536 7.88C55.6416 7.88 56.0616 7.972 56.4136 8.156C56.7736 8.332 57.0656 8.552 57.2896 8.816C57.5216 9.08 57.6896 9.368 57.7936 9.68C57.9056 9.992 57.9616 10.28 57.9616 10.544V11.312H53.1616ZM55.1536 8.768C54.8896 8.768 54.6416 8.812 54.4096 8.9C54.1856 8.98 53.9856 9.096 53.8096 9.248C53.6416 9.4 53.5016 9.58 53.3896 9.788C53.2856 9.988 53.2176 10.208 53.1856 10.448H57.0256C57.0096 10.192 56.9456 9.96 56.8336 9.752C56.7296 9.544 56.5896 9.368 56.4136 9.224C56.2456 9.08 56.0496 8.968 55.8256 8.888C55.6096 8.808 55.3856 8.768 55.1536 8.768Z" fill="white"/>
<path d="M92.7071 8.29289C93.0976 8.68342 93.0976 9.31658 92.7071 9.70711L86.3431 16.0711C85.9526 16.4616 85.3195 16.4616 84.9289 16.0711C84.5384 15.6805 84.5384 15.0474 84.9289 14.6569L90.5858 9L84.9289 3.34315C84.5384 2.95262 84.5384 2.31946 84.9289 1.92893C85.3195 1.53841 85.9526 1.53841 86.3431 1.92893L92.7071 8.29289ZM67 10C66.4477 10 66 9.55228 66 9C66 8.44772 66.4477 8 67 8V10ZM92 10H67V8H92V10Z" fill="white"/>
</svg>
